<?xml version="1.0" encoding="utf-8"?>
<!-- Generator: Adobe Illustrator 16.0.0, SVG Export Plug-In . SVG Version: 6.00 Build 0)  -->
<!DOCTYPE svg PUBLIC "-//W3C//DTD SVG 1.1//EN" "http://www.w3.org/Graphics/SVG/1.1/DTD/svg11.dtd">
<svg version="1.1" id="Layer_1" xmlns="http://www.w3.org/2000/svg" xmlns:xlink="http://www.w3.org/1999/xlink" x="0px" y="0px"
	 width="152.257px" height="148.6px" viewBox="0 0 152.257 148.6" enable-background="new 0 0 152.257 148.6" xml:space="preserve">
<g>
	<defs>
		<path id="XMLID_2_" d="M135.374,94.1c0,29.823-25.296,54-56.5,54s-56.5-24.177-56.5-54s25.296-45.5,56.5-45.5
			C110.077,48.6,135.374,58.943,135.374,94.1z"/>
	</defs>
	<use xlink:href="#XMLID_2_"  overflow="visible"/>
	<clipPath id="XMLID_4_">
		<use xlink:href="#XMLID_2_"  overflow="visible"/>
	</clipPath>
	<ellipse clip-path="url(#XMLID_4_)" fill="#EE2A7B" cx="79.859" cy="108.876" rx="31.146" ry="16.757"/>
	<polygon clip-path="url(#XMLID_4_)" fill="#EE2A7B" points="112.251,67.469 103.829,101.159 90.817,94.119 	"/>
	<polygon clip-path="url(#XMLID_4_)" fill="#EE2A7B" points="45.497,67.469 53.919,101.159 66.931,94.119 	"/>
	<g id="XMLID_1_" clip-path="url(#XMLID_4_)">
		<g>
			<polygon fill="#EE2A7B" points="101.534,148.099 66.794,148.099 72.774,125.168 87.154,125.168 			"/>
		</g>
		<g>
		</g>
	</g>
	<use xlink:href="#XMLID_2_"  overflow="visible" fill="none" stroke="#000000" stroke-miterlimit="10"/>
</g>
<ellipse transform="matrix(0.7546 -0.6561 0.6561 0.7546 -22.7556 21.5035)" stroke="#000000" stroke-miterlimit="10" cx="17.374" cy="41.178" rx="13.5" ry="20.5"/>
<ellipse transform="matrix(0.9894 -0.1452 0.1452 0.9894 -2.8264 7.9637)" stroke="#000000" stroke-miterlimit="10" cx="53.156" cy="23.349" rx="13.5" ry="20.5"/>
<ellipse transform="matrix(0.9859 0.1674 -0.1674 0.9859 4.7956 -15.2113)" stroke="#000000" stroke-miterlimit="10" cx="92.622" cy="20.839" rx="13.5" ry="20.5"/>
<ellipse transform="matrix(0.7988 0.6016 -0.6016 0.7988 48.3573 -74.3734)" stroke="#000000" stroke-miterlimit="10" cx="135.374" cy="35.112" rx="13.5" ry="20.5"/>
</svg>
